<mxfile host="65bd71144e">
    <diagram id="n5W9dpHo_4uRlmlUV37y" name="Page-1">
        <mxGraphModel dx="1453" dy="674" grid="1" gridSize="10" guides="1" tooltips="1" connect="1" arrows="1" fold="1" page="1" pageScale="1" pageWidth="1700" pageHeight="1100" background="#FFFFFF" math="0" shadow="0">
            <root>
                <mxCell id="0"/>
                <mxCell id="1" parent="0"/>
                <mxCell id="Vt560z4J3A8kVG_z0Vwq-2" value="" style="rounded=1;whiteSpace=wrap;html=1;fontSize=20;fillColor=none;arcSize=2;dashed=1;" parent="1" vertex="1">
                    <mxGeometry x="161" y="271" width="979" height="639" as="geometry"/>
                </mxCell>
                <mxCell id="40" value="MDAA Roles Module" style="rounded=1;whiteSpace=wrap;html=1;fontSize=20;fillColor=none;arcSize=2;dashed=1;labelPosition=center;verticalLabelPosition=bottom;align=center;verticalAlign=top;strokeColor=#FF8000;strokeWidth=5;" parent="1" vertex="1">
                    <mxGeometry x="856" y="380" width="254" height="470" as="geometry"/>
                </mxCell>
                <mxCell id="Vt560z4J3A8kVG_z0Vwq-3" value="MDAA Data Science Team Module" style="rounded=1;whiteSpace=wrap;html=1;fontSize=20;fillColor=none;arcSize=2;dashed=1;labelPosition=center;verticalLabelPosition=bottom;align=center;verticalAlign=top;strokeColor=#FF8000;strokeWidth=5;" parent="1" vertex="1">
                    <mxGeometry x="210" y="395" width="450" height="455" as="geometry"/>
                </mxCell>
                <mxCell id="Vt560z4J3A8kVG_z0Vwq-4" value="Deployment/Target&lt;br style=&quot;font-size: 20px;&quot;&gt;Account" style="outlineConnect=0;dashed=0;verticalLabelPosition=middle;verticalAlign=middle;align=left;html=1;shape=mxgraph.aws3.cloud_2;fillColor=#F58534;gradientColor=none;labelPosition=right;fontSize=20;" parent="1" vertex="1">
                    <mxGeometry x="160" y="270" width="60" height="60" as="geometry"/>
                </mxCell>
                <mxCell id="32" value="Access&lt;br&gt;(via Key Policy)" style="edgeStyle=orthogonalEdgeStyle;rounded=0;html=1;fontSize=16;entryX=0.5;entryY=0;entryDx=0;entryDy=0;" parent="1" source="Vt560z4J3A8kVG_z0Vwq-15" target="47" edge="1">
                    <mxGeometry x="-0.3349" relative="1" as="geometry">
                        <Array as="points">
                            <mxPoint x="990" y="464"/>
                        </Array>
                        <mxPoint as="offset"/>
                    </mxGeometry>
                </mxCell>
                <mxCell id="Vt560z4J3A8kVG_z0Vwq-15" value="Team KMS Key" style="sketch=0;points=[[0,0,0],[0.25,0,0],[0.5,0,0],[0.75,0,0],[1,0,0],[0,1,0],[0.25,1,0],[0.5,1,0],[0.75,1,0],[1,1,0],[0,0.25,0],[0,0.5,0],[0,0.75,0],[1,0.25,0],[1,0.5,0],[1,0.75,0]];outlineConnect=0;fontColor=#232F3E;gradientColor=#F54749;gradientDirection=north;fillColor=#C7131F;strokeColor=#ffffff;dashed=0;verticalLabelPosition=bottom;verticalAlign=top;align=center;html=1;fontSize=16;fontStyle=0;aspect=fixed;shape=mxgraph.aws4.resourceIcon;resIcon=mxgraph.aws4.key_management_service;" parent="1" vertex="1">
                    <mxGeometry x="529" y="415" width="78" height="78" as="geometry"/>
                </mxCell>
                <mxCell id="Vt560z4J3A8kVG_z0Vwq-16" value="Team&lt;br&gt;Bucket" style="sketch=0;points=[[0,0,0],[0.25,0,0],[0.5,0,0],[0.75,0,0],[1,0,0],[0,1,0],[0.25,1,0],[0.5,1,0],[0.75,1,0],[1,1,0],[0,0.25,0],[0,0.5,0],[0,0.75,0],[1,0.25,0],[1,0.5,0],[1,0.75,0]];outlineConnect=0;fontColor=#232F3E;gradientColor=#60A337;gradientDirection=north;fillColor=#277116;strokeColor=#ffffff;dashed=0;verticalLabelPosition=bottom;verticalAlign=top;align=center;html=1;fontSize=16;fontStyle=0;aspect=fixed;shape=mxgraph.aws4.resourceIcon;resIcon=mxgraph.aws4.s3;labelPosition=center;" parent="1" vertex="1">
                    <mxGeometry x="529" y="685" width="78" height="78" as="geometry"/>
                </mxCell>
                <mxCell id="28" value="Data Admin&#10;Role" style="group;labelPosition=right;verticalLabelPosition=middle;align=left;verticalAlign=middle;fontSize=16;" parent="1" vertex="1" connectable="0">
                    <mxGeometry x="910" y="555" width="72" height="68" as="geometry"/>
                </mxCell>
                <mxCell id="29" value="" style="rounded=0;whiteSpace=wrap;html=1;verticalAlign=top;fillColor=#C7131F;strokeColor=#ffffff;fontColor=#232F3E;sketch=0;gradientColor=#F54749;gradientDirection=north;dashed=0;fontStyle=0;" parent="28" vertex="1">
                    <mxGeometry width="72" height="68" as="geometry"/>
                </mxCell>
                <mxCell id="30" value="" style="sketch=0;outlineConnect=0;dashed=0;verticalLabelPosition=bottom;verticalAlign=top;align=center;html=1;fontSize=12;fontStyle=0;aspect=fixed;pointerEvents=1;shape=mxgraph.aws4.role;" parent="28" vertex="1">
                    <mxGeometry x="5" y="17" width="60.27" height="34" as="geometry"/>
                </mxCell>
                <mxCell id="33" value="Access&amp;nbsp;&lt;br&gt;(via Bucket Policy)" style="edgeStyle=orthogonalEdgeStyle;rounded=0;html=1;entryX=0.5;entryY=1;entryDx=0;entryDy=0;fontSize=16;exitX=1;exitY=0.5;exitDx=0;exitDy=0;exitPerimeter=0;" parent="1" source="Vt560z4J3A8kVG_z0Vwq-16" target="47" edge="1">
                    <mxGeometry x="-0.35" relative="1" as="geometry">
                        <mxPoint x="607" y="725" as="sourcePoint"/>
                        <mxPoint as="offset"/>
                    </mxGeometry>
                </mxCell>
                <mxCell id="35" style="edgeStyle=orthogonalEdgeStyle;html=1;entryX=0;entryY=0.5;entryDx=0;entryDy=0;entryPerimeter=0;fontSize=16;rounded=0;" parent="1" target="Vt560z4J3A8kVG_z0Vwq-15" edge="1">
                    <mxGeometry relative="1" as="geometry">
                        <Array as="points">
                            <mxPoint x="430" y="588.9999999999998"/>
                            <mxPoint x="430" y="454"/>
                        </Array>
                        <mxPoint x="529" y="589" as="sourcePoint"/>
                    </mxGeometry>
                </mxCell>
                <mxCell id="37" value="Bound To" style="edgeStyle=orthogonalEdgeStyle;rounded=0;html=1;fontSize=16;" parent="1" target="36" edge="1">
                    <mxGeometry relative="1" as="geometry">
                        <mxPoint x="607" y="589" as="sourcePoint"/>
                    </mxGeometry>
                </mxCell>
                <mxCell id="39" style="edgeStyle=orthogonalEdgeStyle;rounded=0;html=1;fontSize=16;" parent="1" target="38" edge="1">
                    <mxGeometry relative="1" as="geometry">
                        <mxPoint x="529" y="589" as="sourcePoint"/>
                    </mxGeometry>
                </mxCell>
                <mxCell id="Vt560z4J3A8kVG_z0Vwq-23" value="Uses" style="edgeStyle=orthogonalEdgeStyle;rounded=0;orthogonalLoop=1;jettySize=auto;html=1;fontSize=16;entryX=0;entryY=0.5;entryDx=0;entryDy=0;entryPerimeter=0;" parent="1" source="Vt560z4J3A8kVG_z0Vwq-16" target="Vt560z4J3A8kVG_z0Vwq-15" edge="1">
                    <mxGeometry x="-0.0466" relative="1" as="geometry">
                        <Array as="points">
                            <mxPoint x="429" y="705"/>
                            <mxPoint x="429" y="454"/>
                        </Array>
                        <mxPoint y="-1" as="offset"/>
                    </mxGeometry>
                </mxCell>
                <mxCell id="36" value="Existing VPC and&lt;br style=&quot;font-size: 16px;&quot;&gt;Subnets" style="sketch=0;points=[[0,0,0],[0.25,0,0],[0.5,0,0],[0.75,0,0],[1,0,0],[0,1,0],[0.25,1,0],[0.5,1,0],[0.75,1,0],[1,1,0],[0,0.25,0],[0,0.5,0],[0,0.75,0],[1,0.25,0],[1,0.5,0],[1,0.75,0]];outlineConnect=0;fontColor=#232F3E;gradientColor=#945DF2;gradientDirection=north;fillColor=#5A30B5;strokeColor=#ffffff;dashed=0;verticalLabelPosition=bottom;verticalAlign=top;align=center;html=1;fontSize=16;fontStyle=0;aspect=fixed;shape=mxgraph.aws4.resourceIcon;resIcon=mxgraph.aws4.vpc;" parent="1" vertex="1">
                    <mxGeometry x="730" y="550" width="78" height="78" as="geometry"/>
                </mxCell>
                <mxCell id="38" value="Studio&lt;br&gt;Security Group" style="sketch=0;points=[[0,0,0],[0.25,0,0],[0.5,0,0],[0.75,0,0],[1,0,0],[0,1,0],[0.25,1,0],[0.5,1,0],[0.75,1,0],[1,1,0],[0,0.25,0],[0,0.5,0],[0,0.75,0],[1,0.25,0],[1,0.5,0],[1,0.75,0]];outlineConnect=0;fontColor=#232F3E;gradientColor=#945DF2;gradientDirection=north;fillColor=#5A30B5;strokeColor=#ffffff;dashed=0;verticalLabelPosition=bottom;verticalAlign=top;align=center;html=1;fontSize=16;fontStyle=0;aspect=fixed;shape=mxgraph.aws4.resourceIcon;resIcon=mxgraph.aws4.vpc;" parent="1" vertex="1">
                    <mxGeometry x="270" y="550" width="78" height="78" as="geometry"/>
                </mxCell>
                <mxCell id="50" value="Uses&lt;br&gt;for&lt;br&gt;EFS" style="edgeStyle=orthogonalEdgeStyle;rounded=0;html=1;entryX=0;entryY=0.75;entryDx=0;entryDy=0;entryPerimeter=0;fontSize=16;exitX=0;exitY=0.25;exitDx=0;exitDy=0;exitPerimeter=0;" edge="1" parent="1" source="41" target="Vt560z4J3A8kVG_z0Vwq-15">
                    <mxGeometry relative="1" as="geometry">
                        <Array as="points">
                            <mxPoint x="470" y="566"/>
                            <mxPoint x="470" y="474"/>
                        </Array>
                    </mxGeometry>
                </mxCell>
                <mxCell id="41" value="SageMaker Studio &lt;br style=&quot;font-size: 16px;&quot;&gt;Domain" style="sketch=0;points=[[0,0,0],[0.25,0,0],[0.5,0,0],[0.75,0,0],[1,0,0],[0,1,0],[0.25,1,0],[0.5,1,0],[0.75,1,0],[1,1,0],[0,0.25,0],[0,0.5,0],[0,0.75,0],[1,0.25,0],[1,0.5,0],[1,0.75,0]];outlineConnect=0;fontColor=#232F3E;gradientColor=#4AB29A;gradientDirection=north;fillColor=#116D5B;strokeColor=#ffffff;dashed=0;verticalLabelPosition=bottom;verticalAlign=top;align=center;html=1;fontSize=16;fontStyle=0;aspect=fixed;shape=mxgraph.aws4.resourceIcon;resIcon=mxgraph.aws4.sagemaker;" vertex="1" parent="1">
                    <mxGeometry x="529" y="546" width="78" height="78" as="geometry"/>
                </mxCell>
                <mxCell id="43" value="Query&lt;br style=&quot;font-size: 16px;&quot;&gt;Results" style="edgeStyle=none;html=1;entryX=0;entryY=0.75;entryDx=0;entryDy=0;entryPerimeter=0;fontSize=16;" edge="1" parent="1" source="42" target="Vt560z4J3A8kVG_z0Vwq-16">
                    <mxGeometry relative="1" as="geometry"/>
                </mxCell>
                <mxCell id="42" value="Team Athena&lt;br style=&quot;font-size: 16px;&quot;&gt;Workgroup" style="sketch=0;points=[[0,0,0],[0.25,0,0],[0.5,0,0],[0.75,0,0],[1,0,0],[0,1,0],[0.25,1,0],[0.5,1,0],[0.75,1,0],[1,1,0],[0,0.25,0],[0,0.5,0],[0,0.75,0],[1,0.25,0],[1,0.5,0],[1,0.75,0]];outlineConnect=0;fontColor=#232F3E;gradientColor=#945DF2;gradientDirection=north;fillColor=#5A30B5;strokeColor=#ffffff;dashed=0;verticalLabelPosition=bottom;verticalAlign=top;align=center;html=1;fontSize=16;fontStyle=0;aspect=fixed;shape=mxgraph.aws4.resourceIcon;resIcon=mxgraph.aws4.athena;" vertex="1" parent="1">
                    <mxGeometry x="270" y="705" width="78" height="78" as="geometry"/>
                </mxCell>
                <mxCell id="44" value="Data Scientist&#10;Role" style="group;labelPosition=right;verticalLabelPosition=middle;align=left;verticalAlign=middle;fontSize=16;" vertex="1" connectable="0" parent="1">
                    <mxGeometry x="910" y="623" width="72" height="68" as="geometry"/>
                </mxCell>
                <mxCell id="45" value="" style="rounded=0;whiteSpace=wrap;html=1;verticalAlign=top;fillColor=#C7131F;strokeColor=#ffffff;fontColor=#232F3E;sketch=0;gradientColor=#F54749;gradientDirection=north;dashed=0;fontStyle=0;" vertex="1" parent="44">
                    <mxGeometry width="72" height="68" as="geometry"/>
                </mxCell>
                <mxCell id="46" value="" style="sketch=0;outlineConnect=0;dashed=0;verticalLabelPosition=bottom;verticalAlign=top;align=center;html=1;fontSize=12;fontStyle=0;aspect=fixed;pointerEvents=1;shape=mxgraph.aws4.role;" vertex="1" parent="44">
                    <mxGeometry x="5" y="17" width="60.27" height="34" as="geometry"/>
                </mxCell>
                <mxCell id="47" value="" style="rounded=1;whiteSpace=wrap;html=1;fontSize=16;dashed=1;fillColor=none;" vertex="1" parent="1">
                    <mxGeometry x="893" y="530" width="193" height="169.5" as="geometry"/>
                </mxCell>
                <mxCell id="49" value="Associated To" style="edgeStyle=orthogonalEdgeStyle;html=1;entryX=0.75;entryY=0;entryDx=0;entryDy=0;fontSize=16;rounded=0;" edge="1" parent="1" source="48" target="47">
                    <mxGeometry x="-0.1361" relative="1" as="geometry">
                        <Array as="points">
                            <mxPoint x="309" y="340"/>
                            <mxPoint x="1038" y="340"/>
                        </Array>
                        <mxPoint as="offset"/>
                    </mxGeometry>
                </mxCell>
                <mxCell id="48" value="Team Managed&lt;br&gt;Policies" style="sketch=0;points=[[0,0,0],[0.25,0,0],[0.5,0,0],[0.75,0,0],[1,0,0],[0,1,0],[0.25,1,0],[0.5,1,0],[0.75,1,0],[1,1,0],[0,0.25,0],[0,0.5,0],[0,0.75,0],[1,0.25,0],[1,0.5,0],[1,0.75,0]];outlineConnect=0;fontColor=#232F3E;gradientColor=#F54749;gradientDirection=north;fillColor=#C7131F;strokeColor=#ffffff;dashed=0;verticalLabelPosition=bottom;verticalAlign=top;align=center;html=1;fontSize=16;fontStyle=0;aspect=fixed;shape=mxgraph.aws4.resourceIcon;resIcon=mxgraph.aws4.identity_and_access_management;" vertex="1" parent="1">
                    <mxGeometry x="270" y="416" width="78" height="78" as="geometry"/>
                </mxCell>
            </root>
        </mxGraphModel>
    </diagram>
</mxfile>